{"title":"Prospero's Books (Peter Greenaway, 1991)","uid":9156836,"size":1563249551,"categoryP":"video","categoryS":"movies","magnet":"?xt=urn:btih:a42111c5890a343ff45731b90c98acd4ed426e42&amp;dn=Prospero%27s+Books+%28Peter+Greenaway%2C+1991%29&amp;tr=udp%3A%2F%2Ftracker.openbittorrent.com%3A80&amp;tr=udp%3A%2F%2Fopen.demonii.com%3A1337&amp;tr=udp%3A%2F%2Ftracker.coppersurfer.tk%3A6969&amp;tr=udp%3A%2F%2Fexodus.desync.com%3A6969","seeders":9,"leechers":2,"uploader":"moonflux","files":3,"time":1383790899,"description":"An exiled magician finds an opportunity for revenge against his enemies muted when his daughter and the son of his chief enemy fall in love in this uniquely structured retelling of the 'The Tempest'. \n\nGeneral\nUnique ID                                : 224512376312877266566796457299562785305 (0xA8E782C6957DADA4879F1CD8698CEA19)\nComplete name                            : Prosperos.Books.1991.PAL.DVD.x264-Tree.mkv\nFormat                                   : Matroska\nFormat version                           : Version 2\nFile size                                : 1.46 GiB\nDuration                                 : 2h 0mn\nOverall bit rate                         : 1 728 Kbps\nEncoded date                             : UTC 2010-01-01 09:04:19\nWriting application                      : mkvmerge v3.0.0 ('Hang up your Hang-Ups') built on Dec 12 2009 15:20:35\nWriting library                          : libebml v0.7.9 + libmatroska v0.8.1\n\nVideo\nID                                       : 1\nFormat                                   : AVC\nFormat/Info                              : Advanced Video Codec\nFormat profile                           : &lt;a class=&quot;__cf_email__&quot; href=&quot;/cdn-cgi/l/email-protection&quot; data-cfemail=&quot;93dbfaf4fbd3dfa7bda3&quot;&gt;[email&amp;#160;protected]&lt;/a&gt;&lt;script cf-hash='f9e31' type=&quot;text/javascript&quot;&gt;\n/* &lt;![CDATA[ */!function(){try{var t=&quot;currentScript&quot;in document?document.currentScript:function(){for(var t=document.getElementsByTagName(&quot;script&quot;),e=t.length;e--;)if(t[e].getAttribute(&quot;cf-hash&quot;))return t[e]}();if(t&amp;&amp;t.previousSibling){var e,r,n,i,c=t.previousSibling,a=c.getAttribute(&quot;data-cfemail&quot;);if(a){for(e=&quot;&quot;,r=parseInt(a.substr(0,2),16),n=2;a.length-n;n+=2)i=parseInt(a.substr(n,2),16)^r,e+=String.fromCharCode(i);e=document.createTextNode(e),c.parentNode.replaceChild(e,c)}}}catch(u){}}();/* ]]&gt; */&lt;/script&gt;\nFormat settings, CABAC                   : Yes\nFormat settings, ReFrames                : 16 frames\nCodec ID                                 : V_MPEG4/ISO/AVC\nDuration                                 : 2h 0mn\nBit rate                                 : 1 278 Kbps\nWidth                                    : 716 pixels\nHeight                                   : 572 pixels\nDisplay aspect ratio                     : 16:9\nFrame rate mode                          : Constant\nFrame rate                               : 25.000 fps\nColor space                              : YUV\nChroma subsampling                       : 4:2:0\nBit depth                                : 8 bits\nScan type                                : Progressive\nBits/(Pixel*Frame)                       : 0.125\nStream size                              : 1.05 GiB (72%)\nTitle                                    : Video Track\nWriting library                          : x264 core 80 r1376M 3feaec2\nEncoding settings                        : cabac=1 // deblock=1:-2:-2 / analyse=0x3:0x133 / me=tesa / subme=10 / psy=1 / psy_rd=1.0:0.1 // me_range=32 / chroma_me=1 / trellis=2 / 8x8dct=1 / cqm=0 / deadzone=21,11 / fast_pskip=1 / chroma_qp_offset=-3 / threads=6 / sliced_threads=0 / nr=0 / decimate=1 / mbaff=0 / constrained_intra=0 / bframes=8 / b_pyramid=2 / b_adapt=2 / b_bias=0 / direct=3 / wpredb=1 / wpredp=2 / keyint=250 / keyint_min=25 / scenecut=40 / rc_lookahead=60 / rc=2pass / mbtree=1 / bitrate=1278 / ratetol=1.0 / qcomp=0.60 / qpmin=10 / qpmax=51 / qpstep=4 / cplxblur=20.0 / qblur=0.5 / ip_ratio=1.40 / aq=1:1.00\nLanguage                                 : English\nDefault                                  : Yes\nForced                                   : No\n\nAudio\nID                                       : 2\nFormat                                   : AC-3\nFormat/Info                              : Audio Coding 3\nMode extension                           : CM (complete main)\nFormat settings, Endianness              : Big\nCodec ID                                 : A_AC3\nDuration                                 : 2h 0mn\nBit rate mode                            : Constant\nBit rate                                 : 448 Kbps\nChannel(s)                               : 6 channels\nChannel positions                        : Front: L C R, Side: L R, LFE\nSampling rate                            : 48.0 KHz\nBit depth                                : 16 bits\nCompression mode                         : Lossy\nDelay relative to video                  : 203ms\nStream size                              : 387 MiB (26%)\nTitle                                    : Audio Track\nLanguage                                 : English\nDefault                                  : Yes\nForced                                   : No\n\nText\nID                                       : 3\nFormat                                   : UTF-8\nCodec ID                                 : S_TEXT/UTF8\nCodec ID/Info                            : UTF-8 Plain Text\nTitle                                    : Subtitle Track\nLanguage                                 : Dutch\nDefault                                  : Yes\nForced                                   : No","torrent":{"xt":"urn:btih:a42111c5890a343ff45731b90c98acd4ed426e42","amp;dn":"Prospero%27s+Books+%28Peter+Greenaway%2C+1991%29","amp;tr":["udp%3A%2F%2Ftracker.openbittorrent.com%3A80","udp%3A%2F%2Fopen.demonii.com%3A1337","udp%3A%2F%2Ftracker.coppersurfer.tk%3A6969","udp%3A%2F%2Fexodus.desync.com%3A6969"],"infoHash":"a42111c5890a343ff45731b90c98acd4ed426e42","infoHashBuffer":{"type":"Buffer","data":[164,33,17,197,137,10,52,63,244,87,49,185,12,152,172,212,237,66,110,66]},"announce":[],"urlList":[]}}